<svg width="11" height="11" fill="none" xmlns="http://www.w3.org/2000/svg"><path d="M11 6.048a3.948 3.948 0 01-1.181 2.807 4.061 4.061 0 01-2.847 1.164H.485a.293.293 0 01-.206-.084.285.285 0 010-.405.293.293 0 01.206-.084h6.487A3.47 3.47 0 009.41 8.45a3.373 3.373 0 001.01-2.403c0-.9-.364-1.765-1.01-2.402a3.47 3.47 0 00-2.437-.995H.991l1.607 1.584a.287.287 0 01.066.314.287.287 0 01-.159.157.294.294 0 01-.318-.065L.083 2.567l-.006-.009a.282.282 0 01-.057-.084v-.001l-.002-.008a.279.279 0 01.008-.219.284.284 0 01.057-.085L2.187.087a.291.291 0 01.319-.066.291.291 0 01.158.157.283.283 0 01-.066.315L.99 2.077h5.981A4.061 4.061 0 019.82 3.242 3.948 3.948 0 0111 6.048z" fill="#48556E"/></svg>