<svg width="17" height="17" fill="none" xmlns="http://www.w3.org/2000/svg"><path d="M3.2 0A3.21 3.21 0 000 3.2v10.238c0 1.76 1.44 3.2 3.2 3.2h10.238c1.76 0 3.2-1.44 3.2-3.2V3.2c0-1.76-1.44-3.2-3.2-3.2H3.2zm0 1.28h10.238c1.07 0 1.92.85 1.92 1.92v10.238c0 1.07-.85 1.92-1.92 1.92h-2.042v-5.162h1.787l.268-2.06h-2.055V6.825c0-.596.166-1.002 1.028-1.002h1.1V3.98c-.191-.026-.844-.08-1.603-.08-1.584 0-2.667.958-2.667 2.72v1.517l-1.575-.005v2.06l1.575.004v5.162H3.2a1.909 1.909 0 01-1.92-1.92V3.2A1.91 1.91 0 013.2 1.28z" fill="#fff"/></svg>