<svg width="17" height="17" fill="none" xmlns="http://www.w3.org/2000/svg"><path d="M5.387.638a4.759 4.759 0 00-4.749 4.75v6.868A4.758 4.758 0 005.388 17h6.868A4.758 4.758 0 0017 12.25V5.388a4.759 4.759 0 00-4.75-4.75H5.388zm0 1.259h6.864a3.479 3.479 0 013.49 3.49v6.864a3.478 3.478 0 01-3.485 3.49H5.387a3.478 3.478 0 01-3.49-3.485V5.387a3.479 3.479 0 013.49-3.49zm8.467 1.258c-.35 0-.63.28-.63.63 0 .349.28.629.63.629.349 0 .629-.28.629-.63a.628.628 0 00-.63-.629zM8.819 4.414a4.417 4.417 0 00-4.405 4.405 4.417 4.417 0 004.405 4.405 4.417 4.417 0 004.405-4.405A4.417 4.417 0 008.82 4.414zm0 1.259a3.137 3.137 0 013.147 3.146 3.137 3.137 0 01-3.147 3.147 3.137 3.137 0 01-3.146-3.147 3.137 3.137 0 013.146-3.146z" fill="#fff"/></svg>