<svg width="10" height="17" fill="none" xmlns="http://www.w3.org/2000/svg"><path d="M4.18 11.73c-1.29-.133-2.455-.451-3.45-1.23-.124-.097-.252-.19-.365-.3-.436-.418-.48-.898-.135-1.392.296-.424.791-.537 1.307-.294.1.047.194.106.285.17 1.858 1.275 4.41 1.31 6.274.057a1.7 1.7 0 01.61-.316.96.96 0 011.1.438c.272.445.269.879-.067 1.224a5.067 5.067 0 01-1.825 1.179c-.652.252-1.365.38-2.071.464.106.116.157.173.223.24.96.963 1.922 1.923 2.878 2.89.326.329.394.737.214 1.12-.196.419-.634.694-1.065.665-.272-.02-.485-.155-.674-.345-.724-.728-1.46-1.443-2.17-2.185-.206-.216-.305-.175-.487.012-.728.75-1.468 1.488-2.213 2.221-.334.33-.731.39-1.119.201-.412-.2-.674-.62-.654-1.043.014-.286.155-.504.35-.7.95-.947 1.896-1.898 2.843-2.847.063-.063.121-.13.212-.227z" fill="#fff"/><path d="M4.967 8.43C2.664 8.421.775 6.511.789 4.204A4.221 4.221 0 015.018 0c2.33.006 4.2 1.913 4.189 4.27-.012 2.302-1.913 4.167-4.24 4.16zM7.06 4.21A2.053 2.053 0 005 2.153a2.056 2.056 0 00-2.063 2.083A2.053 2.053 0 005.01 6.278a2.049 2.049 0 002.05-2.067z" fill="#fff"/></svg>