<svg width="22" height="14" fill="none" xmlns="http://www.w3.org/2000/svg"><path d="M10.445.001c-1.077-.01-1.89.04-2.57.391-.28.142-.478.325-.63.539-.082.106-.158.203-.194.426a.672.672 0 00.076.478c.112.198.351.33.514.355.121.016.38.122.426.183.107.153.148.264.163.325.015.061.01.02.01.02v.062s.04.64.015 1.3a5.87 5.87 0 01-.096.894c-.051.228-.178.284.005.178-.127.076-.081.106-.239.025-.163-.076-.584-.432-1.138-1.427-.554-1-.955-1.519-1.046-1.63-.036-.102-.122-.31-.417-.54-.381-.294-.772-.299-.772-.299l-.036-.005h-2.84s-.162.005-.35.046c-.188.04-.457.086-.711.401H.61c-.26.33-.214.63-.194.813a1.7 1.7 0 00.082.335l.01.03.015.031s2.17 4.627 4.76 7.446c2.434 2.652 5.253 2.601 5.253 2.601h1.6l.036-.005s.513.025.945-.457c.218-.249.27-.483.295-.655.03-.178.03-.32.03-.32v.04s.02-.335.112-.686a1.78 1.78 0 01.173-.441c.03-.056.03-.041.04-.056.112.081.295.269.488.508.396.472.843 1.127 1.468 1.58.452.32.879.462 1.204.512.219.036.376.03.483.02l2.21-.04h.02s.457-.01.915-.3c.223-.142.482-.4.568-.772.092-.37-.01-.772-.223-1.143.071.128-.015-.04-.081-.172a4.665 4.665 0 00-.32-.534c-.295-.436-.783-1.051-1.59-1.833-.382-.366-.625-.57-.778-.711.046-.066.051-.071.224-.275.274-.32.675-.792 1.183-1.498.61-.853 1.052-1.55 1.337-2.128.284-.574.513-1.052.259-1.641-.138-.32-.381-.442-.56-.518a2.143 2.143 0 00-.497-.132c-.3-.046-.564-.046-.564-.046l-2.576.02c-.076-.015-.37-.07-.752.173-.375.234-.462.483-.482.559-.061.086-.488.69-1.082 1.747-.6 1.067-1.006 1.356-1.057 1.382-.015-.015.015-.01-.056-.051-.03-.025-.06-.046-.086-.32-.02-.274.005-.706.005-1.214 0-1.092.096-1.661.04-2.204-.025-.275-.137-.61-.38-.834-.244-.218-.508-.3-.783-.37C11.872.057 11.288.01 10.444 0zm-.01 1.3c.787.01 1.34.072 1.544.122.173.046.198.066.193.056v.02c.02.219-.046.92-.046 2.073 0 .452-.035.889 0 1.326.036.437.193.97.656 1.285h.005c-.056-.036.584.442 1.194.223.61-.223 1.092-.782 1.778-1.996.6-1.077 1.041-1.681 1.041-1.681l.04-.061.031-.061s-.01-.005 0-.01l2.642-.02s.183 0 .36.03h.016c-.026.01-.005.076-.183.437-.229.462-.64 1.122-1.224 1.94a21.244 21.244 0 01-1.113 1.412c-.27.31-.472.457-.604.864-.066.198-.051.492.045.69.092.193.204.3.315.407.224.213.488.421.874.802.757.732 1.184 1.27 1.423 1.626.122.183.193.31.238.401.046.091.016.056.117.229.086.157.071.177.071.167a1.36 1.36 0 01-.31.097l-2.21.04-.06.016s.005.005-.133-.016a1.564 1.564 0 01-.65-.29c-.35-.248-.792-.827-1.23-1.355-.213-.26-.431-.513-.705-.717-.275-.203-.707-.39-1.149-.243-.38.122-.63.4-.787.66a3.249 3.249 0 00-.32.787c-.132.503-.152.955-.152.955v.04s0 .031-.01.077c-.026.01-.062.036-.082.046h-1.554s-2.15.111-4.258-2.174C3.983 7.04 1.976 2.922 1.808 2.576h2.617l.106.041c-.06-.05.03.061.03.061l.042.097.07.08s.402.488.976 1.525c.615 1.112 1.133 1.691 1.712 1.97.58.28 1.189.082 1.448-.066.483-.279.538-.67.62-1.03.081-.361.106-.747.122-1.123.03-.722-.01-1.336-.01-1.382-.006-.015-.006-.193-.056-.386a2.4 2.4 0 00-.35-.731c-.082-.112-.158-.056-.245-.137.361-.102.747-.204 1.545-.194z" fill="#fff"/></svg>