<svg width="16" height="13" fill="none" xmlns="http://www.w3.org/2000/svg"><path d="M7.517 0S2.816 0 1.643.314A1.882 1.882 0 00.314 1.643C0 2.816 0 6.013 0 6.013s0 3.199.314 4.371a1.882 1.882 0 001.329 1.329c1.173.314 5.874.314 5.874.314s4.702 0 5.874-.314a1.883 1.883 0 001.329-1.329c.314-1.172.314-4.37.314-4.37s0-3.198-.314-4.371A1.883 1.883 0 0013.39.314C12.22 0 7.517 0 7.517 0zm0 1.503c2.166 0 4.88.1 5.485.263a.382.382 0 01.266.266c.181.675.263 2.735.263 3.982 0 1.246-.082 3.305-.263 3.981a.382.382 0 01-.266.266c-.605.162-3.319.263-5.485.263-2.166 0-4.878-.1-5.485-.263a.382.382 0 01-.266-.266c-.181-.675-.263-2.735-.263-3.981 0-1.247.082-3.307.263-3.984a.38.38 0 01.266-.264c.605-.162 3.319-.263 5.485-.263zM6.014 3.41v5.21l4.51-2.605-4.51-2.605z" fill="#fff"/></svg>