<svg width="23" height="20" fill="none" xmlns="http://www.w3.org/2000/svg"><path d="M20.828 9.874l-.165.732-.404 1.787-.51 2.262-.482 2.13-.316 1.4-.054.239v.002a.734.734 0 01-.026.097c-.007.02-.05.127-.021.066.03-.064-.017.03-.026.045a.589.589 0 01-.05.082c-.014.021-.076.083-.028.043.05-.043-.031.03-.048.047-.02.024-.044.043-.068.066-.064.06.068-.045-.005.005-.056.038-.118.07-.177.104-.045.023.038-.017.04-.017-.014 0-.033.012-.045.017a.693.693 0 01-.092.028c-.03.01-.063.014-.094.021-.05.012.042-.005.045-.005-.02-.004-.047.005-.066.005-.187.01-.378.003-.565.003H4.95c-.078 0-.156-.003-.234-.005-.052-.002.042.005.045.007-.012-.007-.036-.007-.047-.01a1.093 1.093 0 01-.095-.023c-.03-.01-.061-.021-.092-.03-.05-.017.038.013.04.016-.01-.012-.042-.021-.057-.029-.054-.028-.106-.078-.16-.101.002 0 .068.059.033.023l-.035-.03-.078-.078c-.007-.007-.022-.033-.031-.035.002 0 .054.075.026.032l-.054-.08c-.017-.028-.033-.054-.048-.085-.004-.01-.011-.038-.02-.042.016.014.03.087.011.023a1.976 1.976 0 01-.047-.162c-.064-.277-.125-.555-.19-.834-.138-.614-.278-1.228-.415-1.842l-.514-2.273-.475-2.097-.298-1.322a6.393 6.393 0 01-.04-.182l-.455.597h18.766c.255 0 .51.005.762 0h.034c.247 0 .483-.217.472-.472a.481.481 0 00-.473-.472H2.515c-.255 0-.51-.005-.762 0H1.72c-.32 0-.522.3-.456.597.057.248.113.498.168.746l.41 1.816.518 2.288.481 2.137c.102.453.206.909.307 1.362.017.069.03.137.047.206.15.637.69 1.173 1.344 1.272.252.038.505.028.76.028H18.07c.15 0 .29-.009.437-.035.635-.113 1.152-.645 1.296-1.263.06-.258.116-.515.175-.775.14-.613.276-1.227.416-1.841l.514-2.281c.161-.709.322-1.417.482-2.128l.305-1.343.042-.187c.055-.24-.073-.521-.33-.58-.236-.057-.52.07-.579.328z" fill="#48556E"/><path d="M22.055 6.916c0 .812.015 1.626 0 2.439v.047c-.004.042-.002.042.003 0 .002-.01.002-.021.005-.03a.582.582 0 01-.017.06c-.017.074-.007-.037.014-.025.003.002-.026.047-.028.054-.038.082.064-.057 0 .002-.017.017-.04.036-.055.052-.03.043.095-.05.01-.012-.007.003-.052.031-.054.029-.01-.02.099-.029.026-.014a.217.217 0 00-.031.009c-.04.01-.04.01 0 .002l.03-.004c-.016.002-.032.002-.047.002H1.94c-.277 0-.553.005-.827 0h-.036c-.097 0 .059.03.016.002-.007-.004-.075-.016-.075-.02-.003.006.108.044.002-.006-.068-.033.04.005.021.022a.324.324 0 01-.044-.04 38.703 38.703 0 01-.022-.022c-.026-.03-.026-.03 0 0 .007.007.012.017.02.024C.981 9.47.972 9.45.963 9.435c-.043-.062.03.024.009.028a.593.593 0 01-.019-.059c-.035-.092 0 .078 0 .017l-.002-.05c-.003-.127 0-.255 0-.382V7.376c0-.149-.003-.3 0-.449v-.04c0-.097-.031.062-.003.017.005-.007.017-.076.022-.076.01.003-.06.106-.01.029l.03-.052c-.044.054-.049.061-.016.023l.022-.021.02-.021c.032-.026.032-.026 0 0-.006.007-.016.012-.023.019.017-.012.036-.022.052-.031.062-.043-.023.03-.028.01 0-.003.052-.017.059-.02.092-.035-.078 0-.017 0-.05 0 .163-.004.05-.002h.002c.073-.002.147 0 .222 0h20.6c.078 0-.033.012-.031-.005 0-.002.052.015.061.017.092.019-.05-.043-.014-.007.005.005.069.035.066.038-.005.007-.087-.083-.023-.017l.042.043c.066.061-.021-.062-.01-.012.003.007.043.064.038.066-.009.005-.033-.116-.014-.026 0-.005.017.061.017.061l-.007-.063c-.003.016-.003.037-.003.059.008.247.213.484.473.472.25-.012.479-.208.472-.472-.017-.64-.527-1.105-1.155-1.105H1.275c-.153 0-.3-.003-.453.037-.489.125-.81.584-.82 1.08-.002.155 0 .309 0 .465v1.636c0 .127-.007.26.003.39a1.12 1.12 0 001.103 1.055c.068.002.136 0 .203 0H20.81c.35 0 .699.002 1.046 0a1.124 1.124 0 001.138-1.12c.007-.443 0-.885 0-1.329V6.918c0-.248-.217-.484-.472-.472a.477.477 0 00-.468.47z" fill="#48556E"/><path d="M14.113.713l1.485 1.97a45337.873 45337.873 0 002.897 3.842c.149.195.415.317.647.169.194-.126.328-.435.17-.647l-1.485-1.97C17.043 3.04 16.259 2 15.475.959L14.93.236c-.15-.196-.416-.319-.647-.17-.196.125-.33.434-.17.647zM4.507 6.521l1.486-1.969 2.351-3.119.546-.722c.148-.199.037-.536-.17-.647-.248-.133-.487-.043-.647.17L6.588 2.203 4.236 5.322l-.546.722c-.148.199-.037.536.17.647.25.133.49.043.647-.17z" fill="#48556E"/></svg>