<svg width="26" height="15" fill="none" xmlns="http://www.w3.org/2000/svg"><path d="M.632 7.511L.622 7.5l.01-.011c.169-.2.419-.487.741-.832a25.92 25.92 0 012.735-2.53C6.428 2.277 9.572.482 13 .482c3.428 0 6.572 1.796 8.892 3.645 1.154.92 2.088 1.84 2.735 2.53a22.04 22.04 0 01.75.843 25.916 25.916 0 01-3.485 3.373c-2.32 1.85-5.464 3.645-8.892 3.645-3.428 0-6.572-1.796-8.892-3.645a25.92 25.92 0 01-2.735-2.53 22.083 22.083 0 01-.74-.832z" stroke="#48556E" stroke-width=".964"/><circle cx="12.969" cy="7.483" r="3.26" stroke="#48556E" stroke-width=".964"/></svg>