<svg width="174" height="35" fill="none" xmlns="http://www.w3.org/2000/svg"><path d="M45.684 26h-7.968V8.067h13.399v3.945h-8.762v1.947h3.33c2.136 0 3.835.564 5.099 1.691 1.264 1.127 1.896 2.579 1.896 4.355 0 1.777-.632 3.22-1.896 4.33C49.518 25.445 47.819 26 45.684 26zm-3.33-8.428v4.483h2.971c.82 0 1.469-.197 1.947-.59.495-.392.743-.93.743-1.613 0-.7-.248-1.256-.743-1.666-.478-.41-1.127-.614-1.947-.614h-2.972zM59.404 26h-4.867l7.531-18.035H66.5L74.033 26H69.09l-1.512-3.792h-6.66L59.404 26zm4.842-12.271l-1.87 4.79h3.74l-1.87-4.79zM80.649 26h-3.868V8.067h4.611v10.12l7.404-10.12h3.996V26h-4.61V15.778L80.648 26zm-.717-23.364h3.1c.017.495.17.888.46 1.178.308.29.727.436 1.256.436.53 0 .94-.145 1.23-.436.307-.29.47-.683.487-1.178h3.15c-.033 1.417-.503 2.519-1.408 3.305-.905.802-2.05 1.204-3.433 1.204-1.367 0-2.52-.402-3.459-1.204-.888-.803-1.349-1.905-1.383-3.305z" fill="#F84C4C"/><path d="M99.73 29.484H95.4v-7.532h1.717c1.366-2.22 2.05-5.773 2.05-10.657V8.067h13.372v13.885h2.357v7.532h-4.355V26H99.73v3.484zm2.408-7.532h5.79v-9.837h-4.176c-.051 3.757-.589 7.036-1.614 9.837zm21.417-1.28c.905.956 2.032 1.434 3.381 1.434 1.333 0 2.451-.478 3.356-1.435.906-.956 1.358-2.169 1.358-3.637 0-1.47-.452-2.682-1.358-3.638-.905-.957-2.023-1.435-3.356-1.435-1.349 0-2.476.478-3.381 1.435-.888.939-1.332 2.152-1.332 3.637 0 1.486.444 2.699 1.332 3.638zm10.145 2.971c-1.794 1.81-4.048 2.716-6.764 2.716-2.715 0-4.97-.906-6.763-2.716-1.793-1.81-2.69-4.014-2.69-6.61s.897-4.799 2.69-6.61c1.793-1.81 4.048-2.715 6.763-2.715 2.716 0 4.97.906 6.764 2.716 1.793 1.81 2.69 4.014 2.69 6.61s-.897 4.799-2.69 6.61zM144.642 26h-4.611V8.067h7.993c2.015 0 3.603.52 4.765 1.563 1.178 1.041 1.767 2.39 1.767 4.047 0 1.657-.589 3.015-1.767 4.074-1.162 1.042-2.75 1.563-4.765 1.563h-3.382V26zm0-14.039v3.561h3.049c.666 0 1.195-.154 1.588-.461.41-.325.615-.769.615-1.332 0-.564-.196-1-.589-1.307-.393-.307-.931-.461-1.614-.461h-3.049zm22.422 14.398c-2.869 0-5.252-.871-7.147-2.613-1.896-1.742-2.844-3.98-2.844-6.712 0-2.733.939-4.97 2.818-6.713 1.896-1.742 4.278-2.613 7.148-2.613 1.707 0 3.253.342 4.637 1.025v4.535a8.521 8.521 0 00-4.586-1.307c-1.503 0-2.758.478-3.766 1.435-1.008.956-1.512 2.169-1.512 3.637 0 1.503.513 2.725 1.537 3.664 1.042.94 2.349 1.409 3.92 1.409 1.879 0 3.45-.478 4.714-1.435v4.56c-1.469.752-3.108 1.128-4.919 1.128z" fill="#48556F"/><path d="M24.44 8.907V.062L.166.126 10.744 5.17v26.907L.39 27.655l11.078 7.225c6.346-5.045 15.476-7.66 15.476-15.135 0-6.042-3.563-9.779-11.969-9.219V8.908h9.464z" fill="#F84C4C"/><path d="M.78 23.17l-.724-.373v3.177l.723.373v-3.176zM.835 2.43l-.78-.437v3.24l.78.373V2.429zM9.52 17.378c0 .413-.3.747-.669.747-.369 0-.668-.334-.668-.747s.3-.747.668-.747c.37 0 .668.334.668.747z" fill="#F84C4C"/><path d="M6.64 17.518c.651-.664 1.342-1 2.211-.887l-.6.624c-.616-.15-1-.05-1.612.263z" fill="#F84C4C"/><path d="M24.44.062h.055V0h-.056v.062zm0 8.845v.062h.055v-.062h-.056zm-9.465 0v-.062h-.055v.062h.055zm0 1.62h-.055v.066l.059-.004-.004-.063zM11.468 34.88l-.028.054.031.02.03-.023-.033-.05zM.39 27.655l.02-.058-.048.112.028-.054zm10.354 4.422l-.02.059.076.032v-.09h-.056zm0-26.907h.056v-.041l-.034-.016-.022.057zM.167.125V.062l-.022.12.022-.057zM.056 22.797l.023-.057L0 22.7v.097h.056zm.723.373h.056v-.04l-.032-.016-.024.056zm0 3.177l-.023.057.08.04v-.097H.778zm-.723-.374H0v.04l.032.017.024-.057zm0-23.98l.025-.055L0 1.893v.1h.056zm.78.436H.89v-.038l-.03-.017-.025.055zm0 3.177l-.023.057.078.037v-.094H.835zm-.78-.374H0v.041l.034.016.022-.057zm6.583 12.286l-.037-.046a.068.068 0 00-.01.08c.016.026.046.036.07.023l-.023-.057zm1.613-.263l-.012.06.029.008.02-.023-.037-.045zM24.384.062v8.845h.11V.062h-.11zm.055 8.783h-9.464v.124h9.464v-.124zm-9.52.062v1.62h.112v-1.62h-.111zm.06 1.682c4.196-.28 7.173.514 9.1 2.12 1.924 1.606 2.81 4.03 2.81 7.036H27c0-3.036-.896-5.501-2.855-7.135-1.956-1.632-4.964-2.426-9.173-2.146l.007.125zm11.91 9.156c0 3.703-2.26 6.21-5.333 8.426-1.536 1.108-3.27 2.14-5.02 3.212-1.748 1.072-3.51 2.183-5.1 3.446l.064.102c1.584-1.259 3.342-2.367 5.09-3.438 1.748-1.071 3.486-2.106 5.026-3.217C24.695 26.055 27 23.516 27 19.745h-.111zM11.496 34.826L.418 27.601l-.056.108 11.078 7.225.056-.108zM.37 27.713l10.355 4.423.04-.117L.41 27.597l-.04.116zm10.43 4.364V5.17h-.111v26.907h.111zm-.034-26.964L.19.067.145.182l10.577 5.045.044-.114zM.167.187L24.44.125V0L.167.062v.125zM.032 22.853l.724.374.047-.113-.724-.374-.047.113zm.692.317v3.177h.111V23.17H.724zm.079 3.12l-.724-.373-.047.113.724.374.047-.113zm-.692-.317v-3.176H0v3.176h.111zM.031 2.05l.78.436.049-.111-.78-.436-.05.111zm.748.38v3.177h.112V2.429H.779zm.078 3.12l-.78-.374-.043.114.78.374.043-.114zm-.746-.317v-3.24H0v3.24h.111zm9.353 12.146c0 .378-.274.685-.612.685v.125c.4 0 .723-.363.723-.81h-.111zm-.612.685c-.339 0-.613-.307-.613-.685h-.111c0 .447.324.81.724.81v-.125zm-.613-.685c0-.378.274-.685.613-.685v-.125c-.4 0-.724.363-.724.81h.111zm.613-.685c.338 0 .612.306.612.685h.111c0-.447-.324-.81-.723-.81v.125zm.006-.124c-.89-.116-1.595.23-2.256.903l.075.092c.643-.655 1.318-.983 2.168-.872l.013-.123zm-2.196 1.006c.305-.156.549-.257.791-.3.241-.044.484-.033.787.04l.024-.12a1.934 1.934 0 00-.829-.044c-.257.047-.511.153-.819.31l.046.114zm1.59-.32l.038.046V17.3a1.3 1.3 0 00.06-.062 1239.09 1239.09 0 01.54-.56l-.076-.092a1634.536 1634.536 0 00-.584.607l-.012.013a.042.042 0 01-.003.003v.001h-.001l.038.046z" fill="#F84C4C"/></svg>